<mxfile host="65bd71144e">
    <diagram id="TjJzswez9hUoXF-m_bUa" name="Page-1">
        <mxGraphModel dx="772" dy="346" grid="1" gridSize="10" guides="1" tooltips="1" connect="1" arrows="1" fold="1" page="1" pageScale="1" pageWidth="850" pageHeight="1100" math="0" shadow="0">
            <root>
                <mxCell id="0"/>
                <mxCell id="1" parent="0"/>
                <mxCell id="2" value="http://ic20.mths.ca" style="swimlane;whiteSpace=wrap;html=1;" vertex="1" parent="1">
                    <mxGeometry x="150" y="160" width="640" height="310" as="geometry"/>
                </mxCell>
                <mxCell id="3" value="My random country API program" style="text;html=1;align=center;verticalAlign=middle;resizable=0;points=[];autosize=1;strokeColor=none;fillColor=none;" vertex="1" parent="2">
                    <mxGeometry x="20" y="40" width="200" height="30" as="geometry"/>
                </mxCell>
                <mxCell id="4" value="&lt;div&gt;Click the button to show a random country and its ISO code&lt;/div&gt;&lt;div&gt;&lt;br&gt;&lt;/div&gt;" style="text;html=1;align=center;verticalAlign=middle;resizable=0;points=[];autosize=1;strokeColor=none;fillColor=none;" vertex="1" parent="2">
                    <mxGeometry x="20" y="80" width="340" height="40" as="geometry"/>
                </mxCell>
                <mxCell id="5" value="show country" style="rounded=1;whiteSpace=wrap;html=1;" vertex="1" parent="2">
                    <mxGeometry x="50" y="150" width="120" height="40" as="geometry"/>
                </mxCell>
                <mxCell id="6" value="flag image" style="rounded=1;whiteSpace=wrap;html=1;" vertex="1" parent="2">
                    <mxGeometry x="360" y="40" width="210" height="140" as="geometry"/>
                </mxCell>
                <mxCell id="7" value="The random country is Bulgaria and its ISO code is BG" style="text;html=1;align=center;verticalAlign=middle;resizable=0;points=[];autosize=1;strokeColor=none;fillColor=none;" vertex="1" parent="2">
                    <mxGeometry x="50" y="240" width="320" height="30" as="geometry"/>
                </mxCell>
            </root>
        </mxGraphModel>
    </diagram>
</mxfile>